<svg width="64" height="40" viewBox="0 0 64 40" fill="none" xmlns="http://www.w3.org/2000/svg">
<path d="M0 39.8391L16.094 3.99641C16.1581 4.06053 16.312 4.22724 16.4146 4.38113C19.8001 13.563 16.5856 22.3132 14.5551 25.5405H21.0932C23.0446 25.5405 25.3013 26.0418 25.9502 27.8821C26.8524 30.4414 24.0442 32.3371 23.5959 32.3371H20.9029C12.5931 32.2858 8.97672 37.3171 8.20729 39.8391H0Z" fill="#8BE5E3"/>
<path d="M33.7908 35.5431C33.3805 34.6711 23.2752 11.5839 18.2739 0.149294H18.7228C24.4935 -0.684257 26.6095 2.20111 27.5712 3.1629C28.533 4.70176 42.5111 36.0561 44.1141 39.9033C35.7785 40.6727 34.3038 36.6332 33.7908 35.5431Z" fill="#8BE5E3"/>
<path d="M32.4442 3.6759C31.9825 2.08574 30.8839 0.576804 30.3923 0.0211029C34.7311 0.0211029 44.1524 0.0723983 47.1275 0.27758C55.463 1.23937 59.5026 7.3307 61.2979 10.4725C67.261 26.3741 57.3866 34.6455 57.1301 34.9661C56.8737 35.2867 55.3348 36.505 52.4494 38.108C48.5381 39.8392 46.9351 36.1844 46.8069 35.8638C46.6787 35.5432 46.4863 34.9661 45.3963 32.5296C54.6936 31.1831 55.6554 22.8476 55.6554 21.1164C55.7195 9.57488 48.474 8.10013 47.5122 7.77954C45.7169 6.81775 39.882 7.13834 38.279 7.13834C33.9189 6.49715 33.0854 4.50945 32.4442 3.6759Z" fill="#8BE5E3"/>
</svg>
