<svg width="111" height="111" viewBox="0 0 111 111" fill="none" xmlns="http://www.w3.org/2000/svg">
<g id="Group 10265">
<circle id="Ellipse 4" cx="55.5" cy="55.5" r="55.5" fill="#03201F" fill-opacity="0.5"/>
<circle id="Ellipse 5" cx="55.5" cy="55.5" r="41.5" fill="#041C1A"/>
<g id="Scroll down">
<path id="Vector" d="M55.72 38C50.3521 38 46 42.3956 46 47.8208V64.1792C46 69.6008 50.3521 74 55.72 74C61.0879 74 65.44 69.6044 65.44 64.1792V47.8172C65.4436 42.3956 61.0879 38 55.72 38ZM64.1426 64.1756C64.1426 68.8664 60.3679 72.6824 55.72 72.6824C51.0721 72.6824 47.301 68.8664 47.301 64.1756V47.8172C47.301 43.1264 51.0756 39.3104 55.7236 39.3104C60.3715 39.3104 64.1461 43.13 64.1461 47.8172L64.1426 64.1756ZM58.2578 67.5236C58.2578 68.9384 57.1208 70.0868 55.72 70.0868C54.3192 70.0868 53.1822 68.9384 53.1822 67.5236C53.1822 66.1088 54.3192 64.9604 55.72 64.9604C57.1208 64.9604 58.2578 66.1052 58.2578 67.5236ZM57.5556 62.6168C57.5556 63.6428 56.7323 64.4708 55.72 64.4708C54.7042 64.4708 53.8844 63.6392 53.8844 62.6168C53.8844 61.5944 54.7077 60.7628 55.72 60.7628C56.7358 60.7592 57.5556 61.5872 57.5556 62.6168ZM57.0424 58.9484C57.0424 59.6864 56.4507 60.284 55.72 60.284C54.9857 60.284 54.3976 59.6864 54.3976 58.9484C54.3976 58.2068 54.9893 57.6128 55.72 57.6128C56.4507 57.6164 57.0424 58.2176 57.0424 58.9484Z" fill="#95AEAE"/>
</g>
</g>
</svg>
