<svg width="86" height="90" viewBox="0 0 86 90" fill="none" xmlns="http://www.w3.org/2000/svg">
<rect width="85.8584" height="89.3274" rx="20" fill="#FDBE3B"/>
<path d="M59.827 41.7179C56.9414 36.1938 51.2811 32.834 45.2475 32.501C45.0155 32.4859 45.0003 32.4102 45.2122 32.3194L50.711 29.9635C50.9229 29.8727 51.2004 29.9635 51.3668 30.1199C51.8764 30.5941 52.6835 30.7858 53.3848 30.4932C54.3332 30.0947 54.7771 29 54.3786 28.102C53.9296 27.1536 52.8349 26.755 51.8865 27.1536C51.1751 27.4462 50.7463 28.1222 50.7716 28.8335C50.7817 29.0655 50.6656 29.3178 50.4487 29.4086L43.5575 32.274C43.3406 32.3648 42.9824 32.4506 42.7503 32.4657C42.3417 32.496 41.9331 32.5364 41.5396 32.6019C41.3126 32.6423 41.0502 32.5111 40.9493 32.2993L40.1573 30.5739C40.0615 30.362 39.8092 30.2662 39.5923 30.357L33.4982 32.9198C33.2863 33.0106 33.1904 33.2527 33.2863 33.4646L34.0228 35.0436C34.1237 35.2555 34.038 35.5229 33.8463 35.654C33.3014 36.0223 32.7869 36.436 32.3127 36.8749C32.1411 37.0313 31.8334 37.2381 31.6215 37.3289L24.8312 40.1439C24.6143 40.2347 24.3368 40.149 24.1603 39.9976C23.6205 39.5284 22.8083 39.367 22.102 39.6596C21.1536 40.0582 20.755 41.1024 21.1536 42.0508C21.5521 42.9488 22.6973 43.3978 23.6457 42.9993C24.3469 42.7117 24.7404 42.0105 24.7404 41.3244C24.7404 41.0923 24.8615 40.835 25.0784 40.7493L30.5268 38.4842C30.7437 38.3934 30.7891 38.459 30.6327 38.6355C26.7583 43.0598 25.4971 49.4263 27.7168 55.1623C27.8026 55.3792 27.7017 55.6264 27.4848 55.7172L26.0167 56.3377C25.8049 56.4285 25.704 56.6757 25.7998 56.8876L28.4433 62.7446C28.5391 62.9565 28.7914 63.0574 29.0033 62.9666L35.0974 60.4038C35.3093 60.313 35.4102 60.0709 35.3143 59.859L32.6708 54.002C32.575 53.7901 32.3227 53.6892 32.1109 53.78L30.1737 54.5821C29.9567 54.6729 29.7146 54.567 29.6339 54.3501C27.3435 48.2105 29.5077 41.4556 34.6787 37.5156C34.8653 37.3743 35.0974 37.4349 35.1983 37.6467L35.9853 39.3267C36.0862 39.5385 36.3384 39.6344 36.5503 39.5436L42.599 36.9808C42.8109 36.89 42.9118 36.6428 42.821 36.4309L42.1551 34.8671C42.0642 34.6552 42.1752 34.4534 42.4073 34.4282C48.6628 33.737 55.0243 36.8143 58.031 42.4746C58.142 42.6814 58.0512 42.9236 57.8343 43.0144L55.8214 43.8771C55.6095 43.9679 55.5137 44.2151 55.6095 44.4269L58.253 50.284C58.3489 50.4958 58.6011 50.5967 58.813 50.5059L64.9071 47.9432C65.119 47.8524 65.2199 47.6102 65.124 47.3983L62.4805 41.5413C62.3847 41.3294 62.1325 41.2285 61.9206 41.3193L60.4071 41.9449C60.1902 42.0206 59.9329 41.9247 59.827 41.7179Z" fill="white"/>
</svg>
