<svg width="70" height="70" viewBox="0 0 70 70" fill="none" xmlns="http://www.w3.org/2000/svg">
<rect width="70" height="70" rx="15" fill="#FF7642"/>
<path d="M50.9058 17H19.0953C17.9402 17 17 17.9402 17 19.0953V50.9047C17 52.0598 17.9402 53 19.0953 53H50.9047C52.0598 53 52.9992 52.0598 52.9992 50.9047L52.9996 19.0953C52.9996 17.9402 52.0602 17 50.9051 17H50.9058ZM19.0953 18.4398H50.9047C51.2656 18.4398 51.5594 18.7337 51.5594 19.0953L51.5598 24.0201H18.4399V19.0953C18.4399 18.734 18.7341 18.4398 19.0953 18.4398H19.0953ZM50.9058 51.5597H19.0953C18.734 51.5597 18.4398 51.2659 18.4398 50.9043V25.4602H51.5597V50.9053C51.5597 51.2666 51.2655 51.5604 50.9051 51.5604L50.9058 51.5597Z" fill="white"/>
<path d="M39.8742 34.7008C39.593 34.4196 39.1375 34.4196 38.8559 34.7008C38.5747 34.9819 38.5747 35.4374 38.8559 35.719L41.6472 38.5096L38.8559 41.3001C38.5747 41.5813 38.5747 42.0372 38.8559 42.3184C38.9967 42.4591 39.1809 42.5293 39.365 42.5293C39.5492 42.5293 39.7334 42.4591 39.8742 42.3184L43.1745 39.0187C43.3094 38.8838 43.3855 38.7008 43.3855 38.5096C43.3855 38.3183 43.3094 38.1353 43.1745 38.0004L39.8742 34.7008Z" fill="white"/>
<path d="M31.1436 34.7008C30.8624 34.4196 30.4065 34.4196 30.1253 34.7008L26.8256 38.0004C26.5444 38.2816 26.5444 38.7375 26.8256 39.0187L30.1253 42.3184C30.2661 42.4591 30.4503 42.5293 30.6344 42.5293C30.8186 42.5293 31.0028 42.4591 31.1436 42.3184C31.4247 42.0372 31.4247 41.5813 31.1436 41.3001L28.353 38.5096L31.1436 35.719C31.4251 35.4378 31.4251 34.9819 31.1436 34.7008Z" fill="white"/>
<path d="M36.3539 31.2622C35.9568 31.192 35.5861 31.4479 35.5136 31.838L33.0701 44.9169C32.9975 45.3077 33.2551 45.684 33.6459 45.7573C33.6908 45.7652 33.735 45.7691 33.7788 45.7691C34.1191 45.7691 34.4216 45.5274 34.4863 45.1811L36.9297 32.1022C37.0023 31.7114 36.7448 31.3351 36.3539 31.2622Z" fill="white"/>
<path d="M21.6051 22.4304C22.003 22.4304 22.3252 22.1082 22.3252 21.7103V20.7496C22.3252 20.3517 22.003 20.0295 21.6051 20.0295C21.2072 20.0295 20.885 20.3517 20.885 20.7496V21.7099C20.8854 22.1082 21.2072 22.4304 21.6051 22.4304Z" fill="white"/>
<path d="M24.455 22.4304C24.8529 22.4304 25.1751 22.1082 25.1751 21.7103V20.7496C25.1751 20.3517 24.8529 20.0295 24.455 20.0295C24.0571 20.0295 23.7349 20.3517 23.7349 20.7496V21.7099C23.7353 22.1082 24.0571 22.4304 24.455 22.4304Z" fill="white"/>
<path d="M27.305 22.4304C27.7029 22.4304 28.0251 22.1082 28.0251 21.7103L28.0247 20.7496C28.0247 20.3517 27.7025 20.0295 27.3046 20.0295C26.9067 20.0295 26.5845 20.3517 26.5845 20.7496V21.7099C26.5849 22.1082 26.9067 22.4304 27.305 22.4304Z" fill="white"/>
<path d="M35.2999 21.95H48.3951C48.793 21.95 49.1152 21.6278 49.1152 21.2299C49.1152 20.832 48.793 20.5098 48.3951 20.5098H35.2999C34.902 20.5098 34.5798 20.832 34.5798 21.2299C34.5802 21.6278 34.902 21.95 35.2999 21.95Z" fill="white"/>
</svg>
