<svg width="70" height="70" viewBox="0 0 70 70" fill="none" xmlns="http://www.w3.org/2000/svg">
<rect width="70" height="70" fill="#E5E5E5"/>
<g id="Home V.02" clip-path="url(#clip0_0_1)">
<rect width="1920" height="8012" transform="translate(-1210 -1206)" fill="#01020A"/>
<g id="Group 10247">
<g id="Ellipse 2" filter="url(#filter0_f_0_1)">
<ellipse cx="-268" cy="-824.5" rx="578" ry="295.5" fill="#108C89"/>
</g>
</g>
<g id="Group 10275">
<g id="Group 10274">
<g id="Ellipse 2_2" filter="url(#filter1_f_0_1)">
<ellipse cx="-249.5" cy="308.5" rx="570.5" ry="60.5" fill="#108C89"/>
</g>
<g id="Group 10268">
<g id="Group 10255">
<rect id="Rectangle 9" width="70" height="70" rx="15" fill="#DAA22C"/>
<g id="Group">
<path id="Vector" d="M50.9391 17H18.9615C17.329 17 16.0006 18.3284 16.0006 19.9609V33.8792C16.0006 34.5331 16.531 35.0634 17.1849 35.0634C17.8387 35.0634 18.3691 34.5331 18.3691 33.8792V19.9609C18.3691 19.6342 18.6347 19.3685 18.9615 19.3685H50.9391C51.2658 19.3685 51.5314 19.6341 51.5314 19.9609V44.0498C51.5314 44.3766 51.2662 44.6422 50.9391 44.6422H18.9615C18.6347 44.6422 18.3691 44.377 18.3691 44.0498V40.9853H46.7937C47.4475 40.9853 47.9779 40.4549 47.9779 39.8011C47.9779 39.1472 47.4475 38.6168 46.7937 38.6168H17.19C17.188 38.6168 17.1863 38.6164 17.1843 38.6164C16.5304 38.6164 16 39.1468 16 39.8007V44.0504C16 45.6829 17.3284 47.0113 18.9609 47.0113H29.9564L27.9976 51.3258C27.7275 51.9215 27.991 52.6236 28.5867 52.8943C28.7453 52.9657 28.9118 53 29.0753 53C29.5256 53 29.956 52.7422 30.1547 52.3052L32.5587 47.0109H37.3413L38.9853 50.631H34.9984C34.3445 50.631 33.8141 51.1614 33.8141 51.8153C33.8141 52.4692 34.3445 52.9995 34.9984 52.9995H40.8239C41.2263 52.9995 41.6013 52.7951 41.8194 52.4564C42.0375 52.1181 42.0689 51.6918 41.9025 51.3254L39.9437 47.0109L50.9382 47.0113C52.5707 47.0113 53.899 45.6829 53.899 44.0504V19.9614C53.899 18.3289 52.571 17.0005 50.9382 17.0005L50.9391 17Z" fill="white"/>
<path id="Vector_2" d="M41.3648 21.8474C40.9538 21.6503 40.4689 21.7049 40.1128 21.9882C38.0925 23.5984 35.4926 24.4852 32.7927 24.4852H30.6865C28.3873 24.4852 26.5173 26.2317 26.5173 28.3792C26.5169 30.5268 28.3869 32.2732 30.6861 32.2732H31.6423L32.2483 35.3039C32.3607 35.8669 32.8551 36.2564 33.4082 36.2564C33.4851 36.2564 33.5631 36.249 33.6416 36.2329C34.2831 36.1048 34.6991 35.4807 34.5706 34.8396L34.07 32.3368C36.2943 32.5507 38.4125 33.3546 40.1326 34.664C40.3429 34.8243 40.5952 34.9061 40.8505 34.9061C41.0294 34.9061 41.2095 34.8656 41.376 34.783C41.7791 34.5831 42.0348 34.1721 42.0348 33.7218V29.5028H42.1988C42.8531 29.5028 43.3826 28.9724 43.3826 28.3185C43.3826 27.6647 42.8531 27.1343 42.1988 27.1343H42.0348V22.9152C42.0352 22.4596 41.7746 22.0449 41.3648 21.8474L41.3648 21.8474ZM39.6663 31.5678C37.6138 30.486 35.2705 29.9047 32.8804 29.9047H32.6214H32.6193H30.6866C29.6936 29.9047 28.8861 29.2202 28.8861 28.3796C28.8861 27.5386 29.6936 26.8546 30.6866 26.8546H32.7929C35.2283 26.8546 37.6019 26.2473 39.6668 25.1176V31.5677L39.6663 31.5678Z" fill="white"/>
</g>
</g>
</g>
</g>
</g>
</g>
<defs>
<filter id="filter0_f_0_1" x="-1506" y="-1780" width="2476" height="1911" filterUnits="userSpaceOnUse" color-interpolation-filters="sRGB">
<feFlood flood-opacity="0" result="BackgroundImageFix"/>
<feBlend mode="normal" in="SourceGraphic" in2="BackgroundImageFix" result="shape"/>
<feGaussianBlur stdDeviation="330" result="effect1_foregroundBlur_0_1"/>
</filter>
<filter id="filter1_f_0_1" x="-1480" y="-412" width="2461" height="1441" filterUnits="userSpaceOnUse" color-interpolation-filters="sRGB">
<feFlood flood-opacity="0" result="BackgroundImageFix"/>
<feBlend mode="normal" in="SourceGraphic" in2="BackgroundImageFix" result="shape"/>
<feGaussianBlur stdDeviation="330" result="effect1_foregroundBlur_0_1"/>
</filter>
<clipPath id="clip0_0_1">
<rect width="1920" height="8012" fill="white" transform="translate(-1210 -1206)"/>
</clipPath>
</defs>
</svg>
