<svg width="70" height="70" viewBox="0 0 70 70" fill="none" xmlns="http://www.w3.org/2000/svg">
<rect width="70" height="70" rx="15" fill="#F6A364"/>
<path d="M48.7931 23.8966L38.3103 17.8276C36.5172 16.7241 34.1724 16.7241 32.3793 17.8276L22.0345 23.8966C20.2414 25 19 26.931 19 29V41C19 43.069 20.1034 45.1379 22.0345 46.1034L32.5172 52.1724C34.3103 53.2759 36.6552 53.2759 38.4483 52.1724L48.931 46.1034C50.7241 45 51.9655 43.069 51.9655 41V29C51.8276 26.931 50.7241 25 48.7931 23.8966ZM42.5862 37.5517C42.5862 38.6552 42.0345 39.6207 41.069 40.1724L36.7931 42.6552C35.8276 43.2069 34.7241 43.2069 33.7586 42.6552L29.4828 40.1724C28.5172 39.6207 27.9655 38.6552 27.9655 37.5517V32.5862C27.9655 31.4828 28.5172 30.5172 29.4828 29.9655L33.7586 27.4828C34.7241 26.931 35.8276 26.931 36.7931 27.4828L41.069 29.9655C42.0345 30.5172 42.5862 31.4828 42.5862 32.5862V37.5517Z" fill="white"/>
</svg>
