<svg width="70" height="70" viewBox="0 0 70 70" fill="none" xmlns="http://www.w3.org/2000/svg">
<rect width="70" height="70" rx="15" fill="#2196F3"/>
<path d="M19.7936 32.0776L19.7872 32.0768C19.7872 32.0768 22.0364 34.4279 22.0364 37.5688C22.0364 40.1967 21.818 46.5859 21.7466 48.6041H24.8525L25.3072 44.2767C25.3259 44.0986 25.4761 43.9633 25.6553 43.9633C25.8442 43.9633 25.999 44.1132 26.0051 44.3019L26.1453 48.604H29.0829C29.0786 46.2115 28.9335 41.328 28.823 38.2278C28.8278 37.8155 28.9008 37.4047 29.0753 37.0312C29.6346 35.8346 29.5408 34.5756 29.393 33.7704C29.2814 33.1619 29.3903 32.535 29.7115 32.0065L30.1924 31.2148L30.189 31.2179C31.8198 29.1497 32.1297 26.299 32.1656 24.7415C32.1799 24.1212 31.6758 23.6129 31.0554 23.6129C30.4596 23.6129 29.9687 24.0814 29.9464 24.6768C29.8673 26.7935 29.1635 31.3307 24.583 31.3307C20.0024 31.3307 19.2984 26.7935 19.2195 24.6768C19.1973 24.0814 18.7063 23.6129 18.1105 23.6129C17.4901 23.6129 16.986 24.1212 17.0003 24.7415C17.0415 26.5299 17.4452 30.0213 19.7936 32.0771L19.7936 32.0776Z" fill="white"/>
<path d="M21.8244 25.7683C21.542 26.2378 21.3766 26.7856 21.3766 27.3733C21.3766 29.0977 22.7745 30.4955 24.4988 30.4955C26.2231 30.4955 27.6209 29.0977 27.6209 27.3733C27.6209 25.649 26.2231 24.2512 24.4988 24.2512C24.172 24.2512 23.857 24.3019 23.5608 24.3951C23.5541 23.6249 22.9288 23.0023 22.1572 23.0023C21.3812 23.0023 20.7522 23.6313 20.7522 24.4073C20.7522 25.068 21.21 25.6183 21.8244 25.7683V25.7683ZM24.4988 29.8712C23.4086 29.8712 22.4818 29.168 22.1417 28.1921C24.2926 28.1285 25.0441 26.8727 25.3 25.8802C25.6481 26.0627 26.1269 26.2336 26.7445 26.2875C26.9043 26.6164 26.9965 26.9838 26.9965 27.3735C26.9965 28.7507 25.876 29.8712 24.4988 29.8712L24.4988 29.8712Z" fill="white"/>
<path d="M35.7645 36.4655C35.7668 36.4655 35.7689 36.4651 35.7712 36.4651C36.3423 37.2009 37.2329 37.6762 38.2364 37.6762C39.9607 37.6762 41.3586 36.2784 41.3586 34.554C41.3586 32.8297 39.9607 31.4319 38.2364 31.4319C37.4644 31.4319 36.7592 31.7135 36.2141 32.1777L36.2101 32.1787L36.1777 32.2109L35.9174 32.4687L33.9843 34.3839C33.7917 34.5828 33.7528 34.8832 33.8883 35.1246C34.1824 35.6484 34.7962 36.4655 35.7644 36.4655L35.7645 36.4655ZM38.2364 37.0518C37.5557 37.0518 36.9383 36.7773 36.4873 36.334C37.375 35.985 37.7723 35.0104 38.2067 34.3161C38.7093 33.5128 39.6631 33.1405 40.1812 32.9905C40.5264 33.4188 40.7342 33.9624 40.7342 34.554C40.7342 35.9312 39.6137 37.0517 38.2364 37.0517V37.0518Z" fill="white"/>
<path d="M44.7598 33.058C44.1189 32.8056 43.3946 33.1174 43.1374 33.7563L42.2718 35.9076C41.6142 37.5422 40.0292 38.613 38.2674 38.613H36.9639C35.8481 38.613 34.817 39.2084 34.2596 40.1749L30.7109 46.3263C30.4067 46.8536 30.5929 47.5277 31.1244 47.8242C31.6055 48.0926 32.2112 47.9601 32.5364 47.5154L35.6833 43.2123L34.8514 48.604H35.1141C38.0448 48.604 40.7223 47.505 42.7611 45.7001C42.8037 43.3501 42.406 41.9598 42.406 41.9598L45.4557 34.7104C45.7286 34.0619 45.4143 33.316 44.7598 33.0581L44.7598 33.058Z" fill="white"/>
<path d="M52.7989 27.0974L50.7161 22.8719C50.627 19.3185 47.9115 17.1574 47.7941 17.0659C47.6813 16.978 47.5233 16.978 47.4105 17.0659C47.2962 17.1548 44.7213 19.2053 44.5017 22.5912L42.2807 27.0974C42.0761 27.5122 42.3781 27.9977 42.8407 27.9977H44.4801V28.6222C44.4801 28.7945 44.6197 28.9344 44.7924 28.9344H46.2892L45.9834 29.7629C45.9083 29.9668 46.059 30.1832 46.2764 30.1832H47.2901V37.052C47.2901 40.8945 45.5085 44.319 42.7282 46.5507C40.6426 48.2247 37.9959 49.2284 35.1135 49.2284H17.9418C17.597 49.2284 17.3174 49.508 17.3174 49.8529V52.3756C17.3174 52.7223 17.599 53 17.9411 53C17.9529 53 17.9647 52.9997 17.9765 52.999L35.0513 52.0475C42.3583 51.6417 48.0432 45.5421 47.9343 38.2244L47.9146 36.9071V30.1832H48.9283C49.1457 30.1832 49.2965 29.9668 49.2212 29.7629L48.9155 28.9344H50.4123C50.585 28.9344 50.7246 28.7945 50.7246 28.6222V27.9977H52.2389C52.7016 27.9977 53.0035 27.5122 52.799 27.0972L52.7989 27.0974ZM47.9146 28.3101V25.8124C47.9146 25.64 47.7751 25.5001 47.6024 25.5001C47.4298 25.5001 47.2902 25.64 47.2902 25.8124V28.3101H45.1047V23.0472C45.1047 22.5559 45.1647 22.0929 45.2626 21.6572C45.65 19.934 46.6688 18.6679 47.2902 18.0285V20.1923C47.2902 20.3647 47.4298 20.5045 47.6024 20.5045C47.7751 20.5045 47.9147 20.3647 47.9147 20.1923V18.0268C48.4653 18.5917 49.3294 19.6472 49.7888 21.0816C49.979 21.6751 50.1002 22.3326 50.1002 23.0472V28.3101L47.9146 28.3101Z" fill="white"/>
<path d="M47.6028 21.4412C46.7406 21.4412 46.0417 22.1401 46.0417 23.0022C46.0417 23.8644 46.7406 24.5633 47.6028 24.5633C48.4651 24.5633 49.1639 23.8644 49.1639 23.0022C49.1639 22.1401 48.4651 21.4412 47.6028 21.4412ZM47.6028 23.9389C47.0864 23.9389 46.6662 23.5187 46.6662 23.0022C46.6662 22.4858 47.0864 22.0656 47.6028 22.0656C48.1193 22.0656 48.5395 22.4858 48.5395 23.0022C48.5395 23.5187 48.1193 23.9389 47.6028 23.9389Z" fill="white"/>
</svg>
