<svg width="70" height="70" viewBox="0 0 70 70" fill="none" xmlns="http://www.w3.org/2000/svg">
<rect width="70" height="70" rx="15" fill="#34BAAA"/>
<path d="M46.4543 36.8V35C46.4535 32.8303 45.5914 30.7498 44.057 29.2154C42.5229 27.6813 40.4423 26.819 38.2728 26.8181H36.6362V21.9091C36.6324 20.6084 36.1141 19.362 35.1942 18.442C34.2746 17.5224 33.0281 17.0038 31.7272 17H21.9091C20.6084 17.0038 19.362 17.5224 18.442 18.442C17.5224 19.3619 17.0038 20.6084 17 21.9091V31.7272C17.0038 33.0281 17.5224 34.2745 18.442 35.1942C19.3619 36.1141 20.6084 36.6324 21.9091 36.6362H26.8181V38.2728C26.8189 40.4424 27.6813 42.5229 29.2154 44.057C30.7498 45.5914 32.8304 46.4535 35 46.4543H36.8C37.1962 48.3947 38.2826 50.1257 39.858 51.3259C41.4332 52.5263 43.3902 53.1144 45.3662 52.9815C47.3422 52.8487 49.2028 52.0036 50.6032 50.6032C52.0036 49.2028 52.8487 47.3422 52.9815 45.3662C53.1144 43.3902 52.5262 41.4332 51.3259 39.858C50.1257 38.2826 48.3947 37.1961 46.4543 36.8ZM26.9822 33.3637H21.9093C21.476 33.3623 21.0604 33.1895 20.7538 32.8829C20.447 32.5764 20.2744 32.1608 20.273 31.7272V21.9091C20.2744 21.4757 20.447 21.0602 20.7538 20.7536C21.0604 20.4468 21.4759 20.2742 21.9093 20.2728H31.7274C32.1611 20.2742 32.5766 20.4468 32.8832 20.7536C33.1897 21.0601 33.3626 21.4757 33.3639 21.9091V26.982C31.7923 27.3044 30.35 28.081 29.2157 29.2154C28.0813 30.3499 27.3046 31.7921 26.9822 33.3637L26.9822 33.3637ZM44.8182 49.727C43.5162 49.727 42.2675 49.2098 41.3471 48.289C40.4264 47.3686 39.9092 46.12 39.9092 44.8179C39.9092 43.5159 40.4264 42.2673 41.3471 41.3468C42.2675 40.4261 43.5162 39.9089 44.8182 39.9089C46.1202 39.9089 47.3689 40.4261 48.2893 41.3468C49.2101 42.2673 49.7273 43.5159 49.7273 44.8179C49.7234 46.1186 49.2051 47.365 48.2853 48.285C47.3654 49.2049 46.1189 49.7232 44.8182 49.727Z" fill="white"/>
</svg>
